<?xml version="1.0" encoding="utf-8"?>
<svg version="1.1" xmlns:xlink="http://www.w3.org/1999/xlink" width="13px" height="13px" viewBox="0 2.5  13 13" xmlns="http://www.w3.org/2000/svg">
  <path d="M 0.5 7.500000000000001  A 4.5 4.5 0 0 1 4.999999999999999 3 L 8 3  A 4.5 4.5 0 0 1 12.5 7.5 L 12.5 10.5  A 4.5 4.5 0 0 1 8 15 L 5 15  A 4.5 4.5 0 0 1 0.5 10.5 L 0.5 7.5  Z " fill-rule="nonzero" fill="#f0f0f0" stroke="none" />
  <path d="M 0.5 7.500000000000001  A 4.5 4.5 0 0 1 4.999999999999999 3 L 8 3  A 4.5 4.5 0 0 1 12.5 7.5 L 12.5 10.5  A 4.5 4.5 0 0 1 8 15 L 5 15  A 4.5 4.5 0 0 1 0.5 10.5 L 0.5 7.5  Z " stroke-width="1" stroke="#797979" fill="none" />
  <path d="M 2.7857142857142856 9  L 5.571428571428571 11.785714285714286  L 10.214285714285715 5.285714285714286  " stroke-width="2.7857142857142856" stroke="#797979" fill="none" />
</svg>