<?xml version="1.0" encoding="utf-8"?>
<svg version="1.1" xmlns:xlink="http://www.w3.org/1999/xlink" width="31px" height="27px" xmlns="http://www.w3.org/2000/svg">
  <g transform="matrix(1 0 0 1 -501 -6 )">
    <path d="M 23.447337962962962 17.736328125000004  C 24.88252314814815 17.736328125000004  26.634645061728396 17.197265625  28.703703703703702 16.119140624999996  L 28.703703703703702 5.291015624999999  C 26.682484567901238 6.3574218749999964  24.852623456790127 6.890625000000001  23.21412037037037 6.890625000000001  C 22.233410493827165 6.890625000000001  21.366319444444446 6.703124999999998  20.61284722222222 6.328125  C 19.416859567901238 5.753906249999998  18.316550925925927 5.305664062499998  17.311921296296298 4.9833984375  C 16.307291666666668 4.661132812499998  15.242862654320989 4.499999999999999  14.11863425925926 4.499999999999999  C 12.049575617283951 4.499999999999999  9.639660493827162 5.244140624999997  7 6.732421875000001  L 7 17.261718750000004  C 9.81905864197531 15.937499999999996  12.408371913580249 15.275390624999998  14.656828703703704 15.275390624999998  C 15.314621913580249 15.275390624999998  15.93354552469136 15.3193359375  16.513599537037038 15.407226562499998  C 17.09365354938272 15.495117187500002  17.6796875 15.647460937499996  18.27170138888889 15.864257812500002  C 18.86371527777778 16.0810546875  19.324170524691358 16.2626953125  19.65306712962963 16.409179687499996  C 19.981963734567902 16.5556640625  20.47530864197531 16.787109375000004  21.13310185185185 17.103515625000004  L 21.635416666666664 17.349609375  C 22.161651234567902 17.607421874999996  22.765625 17.736328125000004  23.447337962962962 17.736328125000004  Z M 3.9198495370370376 0.6591796875  C 4.368344907407407 1.0986328124999991  4.592592592592593 1.6289062499999982  4.592592592592593 2.250000000000001  C 4.592592592592593 2.660156249999998  4.487943672839506 3.0351562499999964  4.278645833333334 3.375  C 4.0693479938271615 3.714843749999998  3.7912808641975313 3.9843749999999964  4 4.183593749999999  L 4 26.4375  C 3.444444444444444 26.601562499999996  3.390625 26.736328125  3.282986111111111 26.841796875  C 3.1753472222222223 26.947265625  3.037808641975309 27  2.8703703703703702 27  L 1.722222222222222 27  C 1.5547839506172842 27  1.4172453703703705 26.947265625  1.3096064814814814 26.841796875  C 1.2019675925925926 26.736328125  1.1481481481481481 26.601562499999996  1.1481481481481481 26.4375  L 1.1481481481481481 4.183593749999999  C 0.801311728395062 3.9843749999999964  0.5232445987654325 3.714843749999998  0.31394675925925924 3.375  C 0.10464891975308659 3.0351562499999964  0 2.660156249999998  0 2.250000000000001  C 0 1.6289062499999982  0.22424768518518517 1.0986328124999991  0.6727430555555556 0.6591796875  C 1.121238425925926 0.219726562500001  1.662422839506173 0  2.2962962962962963 0  C 2.9301697530864197 0  3.471354166666667 0.219726562500001  3.9198495370370376 0.6591796875  Z M 30.44386574074074 2.408203125000001  C 30.814621913580247 2.6425781249999987  31 2.9648437499999973  31 3.375  L 31 16.787109375000004  C 31 17.244140625  30.79070216049383 17.578125000000004  30.37210648148148 17.789062500000004  C 30.252507716049386 17.84765625  30.1508487654321 17.900390625  30.06712962962963 17.947265625000004  C 27.459876543209877 19.306640625  25.253279320987655 19.986328125  23.447337962962962 19.986328125  C 22.394868827160497 19.986328125  21.450038580246915 19.78125  20.61284722222222 19.371093750000004  L 20.11053240740741 19.124999999999996  C 19.345100308641978 18.738281250000004  18.75308641975309 18.45703125  18.33449074074074 18.281249999999996  C 17.915895061728396 18.105468750000004  17.37172067901235 17.935546875  16.70196759259259 17.771484375  C 16.03221450617284 17.607421874999996  15.350501543209878 17.525390625000004  14.656828703703704 17.525390625000004  C 13.436921296296296 17.525390625000004  12.028645833333332 17.783203124999996  10.432002314814815 18.298828125  C 8.835358796296296 18.814453124999996  7.468942901234569 19.412109375  6.33275462962963 20.091796875  C 6.153356481481483 20.197265625  5.956018518518519 20.25  5.7407407407407405 20.25  C 5.549382716049383 20.25  5.358024691358025 20.203125  5.166666666666666 20.109375000000004  C 4.783950617283951 19.88671875  4.592592592592593 19.558593749999996  5 19.124999999999996  L 5 6.082031249999999  C 4.592592592592593 5.6718749999999964  4.777970679012347 5.349609374999997  5.148726851851852 5.115234375  C 5.567322530864199 4.869140624999999  6.036747685185185 4.620117187499998  6.557002314814815 4.368164062499999  C 7.077256944444445 4.1162109374999964  7.758969907407407 3.8115234374999996  8.602141203703704 3.4541015625  C 9.4453125 3.0966796874999973  10.357253086419755 2.8066406249999973  11.337962962962964 2.583984375  C 12.318672839506174 2.3613281249999996  13.245563271604938 2.250000000000001  14.11863425925926 2.250000000000001  C 15.458140432098766 2.250000000000001  16.7079475308642 2.4316406249999987  17.868055555555554 2.794921875  C 19.028163580246915 3.1582031249999982  20.27797067901235 3.662109374999998  21.61747685185185 4.306640625000001  C 22.07195216049383 4.529296874999998  22.604166666666664 4.640625  23.21412037037037 4.640625  C 24.673225308641978 4.640625  26.52700617283951 3.9843749999999964  28.775462962962962 2.671875000000001  C 29.038580246913583 2.53125  29.223958333333336 2.4316406249999987  29.33159722222222 2.373046875  C 29.702353395061728 2.185546874999998  30.073109567901238 2.197265625000001  30.44386574074074 2.408203125000001  Z " fill-rule="nonzero" fill="#000000" stroke="none" transform="matrix(1 0 0 1 501 6 )" />
  </g>
</svg>