<?xml version="1.0" encoding="utf-8"?>
<svg version="1.1" xmlns:xlink="http://www.w3.org/1999/xlink" width="25px" height="27px" xmlns="http://www.w3.org/2000/svg">
  <g transform="matrix(1 0 0 1 -437 -6 )">
    <path d="M 17.412860576923077 20.483537946428573  C 17.833533653846153 19.99637276785714  18.043870192307693 19.38616071428571  18.043870192307693 18.652901785714285  C 18.043870192307693 18.080357142857146  18.016326121794872 17.542968749999996  17.961237980769234 17.040736607142854  C 17.906149839743595 16.53850446428571  17.80098157051282 16.033761160714285  17.645733173076923 15.526506696428573  C 17.490484775641026 15.019252232142856  17.292668269230766 14.587332589285714  17.052283653846153 14.230747767857144  C 16.81189903846154 13.87416294642857  16.49138621794872 13.582868303571427  16.090745192307693 13.356863839285714  C 15.690104166666668 13.130859375  15.234375 13.017857142857142  14.723557692307693 13.017857142857142  C 14.663461538461538 13.058035714285714  14.495693108974358 13.160993303571427  14.220252403846153 13.326729910714286  C 13.944811698717949 13.492466517857142  13.731971153846153 13.61551339285714  13.581730769230768 13.695870535714286  C 13.431490384615385 13.776227678571425  13.228665865384615 13.876674107142856  12.973257211538462 13.997209821428573  C 12.717848557692307 14.117745535714286  12.47245592948718 14.203124999999998  12.237079326923077 14.253348214285714  C 12.001702724358974 14.303571428571425  11.76883012820513 14.328683035714286  11.538461538461538 14.328683035714286  C 11.30809294871795 14.328683035714286  11.075220352564104 14.303571428571425  10.83984375 14.253348214285714  C 10.604467147435898 14.203124999999998  10.35907451923077 14.117745535714286  10.103665865384617 13.997209821428573  C 9.848257211538462 13.876674107142856  9.645432692307693 13.776227678571425  9.495192307692307 13.695870535714286  C 9.344951923076923 13.61551339285714  9.13211137820513 13.492466517857142  8.856670673076923 13.326729910714286  C 8.581229967948719 13.160993303571427  8.413461538461538 13.058035714285714  8.353365384615383 13.017857142857142  C 7.842548076923077 13.017857142857142  7.3868189102564115 13.130859375  6.986177884615384 13.356863839285714  C 6.5855368589743595 13.582868303571427  6.265024038461539 13.87416294642857  6.024639423076923 14.230747767857144  C 5.784254807692308 14.587332589285714  5.586438301282052 15.019252232142856  5.431189903846153 15.526506696428573  C 5.275941506410256 16.033761160714285  5.170773237179487 16.53850446428571  5.115685096153847 17.040736607142854  C 5.060596955128205 17.542968749999996  5.033052884615385 18.080357142857146  5.033052884615385 18.652901785714285  C 5.033052884615385 19.38616071428571  5.243389423076923 19.99637276785714  5.6640625 20.483537946428573  C 6.084735576923077 20.970703124999996  6.600560897435898 21.214285714285715  7.211538461538461 21.214285714285715  L 15.865384615384615 21.214285714285715  C 16.476362179487182 21.214285714285715  16.9921875 20.970703124999996  17.412860576923077 20.483537946428573  Z M 14.295372596153847 12.460379464285714  C 15.061598557692307 11.696986607142856  15.444711538461538 10.777901785714285  15.444711538461538 9.703125  C 15.444711538461538 8.618303571428573  15.061598557692307 7.694196428571427  14.295372596153847 6.930803571428572  C 13.529146634615385 6.167410714285712  12.610176282051283 5.7857142857142865  11.538461538461538 5.7857142857142865  C 10.466746794871797 5.7857142857142865  9.547776442307693 6.167410714285712  8.78155048076923 6.930803571428572  C 8.01532451923077 7.694196428571427  7.632211538461539 8.618303571428573  7.632211538461539 9.703125  C 7.632211538461539 10.777901785714285  8.01532451923077 11.696986607142856  8.78155048076923 12.460379464285714  C 9.547776442307693 13.223772321428571  10.466746794871797 13.60546875  11.538461538461538 13.60546875  C 12.610176282051283 13.60546875  13.529146634615385 13.223772321428571  14.295372596153847 12.460379464285714  Z M 24.864783653846153 17.492745535714285  C 24.954927884615387 17.583147321428573  25 17.69866071428571  25 17.839285714285715  L 25 20.732142857142854  C 25 20.872767857142858  24.954927884615387 20.98828125  24.864783653846153 21.078683035714285  C 24.774639423076923 21.169084821428573  24.659455128205128 21.214285714285715  24.519230769230766 21.214285714285715  L 23.076923076923077 21.214285714285715  L 23.076923076923077 24.589285714285715  C 23.076923076923077 25.252232142857142  22.841546474358974 25.819754464285715  22.370793269230766 26.291852678571427  C 21.900040064102566 26.763950892857142  21.334134615384613 27  20.673076923076923 27  L 2.403846153846154 27  C 1.7427884615384617 27  1.176883012820513 26.763950892857142  0.7061298076923077 26.291852678571427  C 0.23537660256410256 25.819754464285715  0 25.252232142857142  0 24.589285714285715  L 0 2.410714285714286  C 0 1.7477678571428585  0.23537660256410256 1.1802455357142843  0.7061298076923077 0.7081473214285723  C 1.176883012820513 0.23604910714285743  1.7427884615384617 0  2.403846153846154 0  L 20.673076923076923 0  C 21.334134615384613 0  21.900040064102566 0.23604910714285743  22.370793269230766 0.7081473214285723  C 22.841546474358974 1.1802455357142843  23.076923076923077 1.7477678571428585  23.076923076923077 2.410714285714286  L 23.076923076923077 5.7857142857142865  L 24.519230769230766 5.7857142857142865  C 24.659455128205128 5.7857142857142865  24.774639423076923 5.830915178571428  24.864783653846153 5.9213169642857135  C 24.954927884615387 6.01171875  25 6.127232142857141  25 6.2678571428571415  L 25 9.160714285714286  C 25 9.301339285714285  24.954927884615387 9.416852678571427  24.864783653846153 9.507254464285714  C 24.774639423076923 9.59765625  24.659455128205128 9.642857142857142  24.519230769230766 9.642857142857142  L 23.076923076923077 9.642857142857142  L 23.076923076923077 11.571428571428573  L 24.519230769230766 11.571428571428573  C 24.659455128205128 11.571428571428573  24.774639423076923 11.616629464285714  24.864783653846153 11.70703125  C 24.954927884615387 11.797433035714286  25 11.912946428571427  25 12.053571428571427  L 25 14.946428571428573  C 25 15.08705357142857  24.954927884615387 15.202566964285714  24.864783653846153 15.29296875  C 24.774639423076923 15.383370535714286  24.659455128205128 15.428571428571427  24.519230769230766 15.428571428571427  L 23.076923076923077 15.428571428571427  L 23.076923076923077 17.357142857142854  L 24.519230769230766 17.357142857142854  C 24.659455128205128 17.357142857142854  24.774639423076923 17.40234375  24.864783653846153 17.492745535714285  Z " fill-rule="nonzero" fill="#000000" stroke="none" transform="matrix(1 0 0 1 437 6 )" />
  </g>
</svg>