<?xml version="1.0" encoding="utf-8"?>
<svg version="1.1" xmlns:xlink="http://www.w3.org/1999/xlink" width="24px" height="27px" xmlns="http://www.w3.org/2000/svg">
  <g transform="matrix(1 0 0 1 -469 -6 )">
    <path d="M 12 25.794642857142858  C 12.153846153846157 25.794642857142858  12.230769230769234 25.714285714285715  12.23076923076923 25.553571428571427  C 12.230769230769234 25.392857142857142  12.153846153846157 25.3125  12 25.3125  C 11.432692307692308 25.3125  10.94471153846154 25.09905133928571  10.536057692307693 24.672154017857142  C 10.127403846153847 24.245256696428573  9.923076923076923 23.73549107142857  9.923076923076923 23.142857142857146  C 9.923076923076923 22.982142857142858  9.846153846153847 22.901785714285715  9.692307692307693 22.901785714285715  C 9.53846153846154 22.901785714285715  9.461538461538462 22.982142857142858  9.461538461538462 23.142857142857146  C 9.461538461538462 23.876116071428573  9.709134615384617 24.501395089285715  10.204326923076923 25.018694196428573  C 10.699519230769232 25.535993303571427  11.298076923076923 25.794642857142858  12 25.794642857142858  Z M 6.461538461538462 8.678571428571427  C 6.461538461538462 14.02232142857143  5.182692307692308 18.200892857142854  2.625 21  L 21.375 21  C 18.817307692307693 18.200892857142854  17.538461538461537 14.02232142857143  17.538461538461537 8.678571428571427  C 17.538461538461537 8.166294642857142  17.423076923076923 7.6389508928571415  17.192307692307693 7.096540178571428  C 16.961538461538463 6.5541294642857135  16.629807692307693 6.036830357142854  16.197115384615387 5.5446428571428585  C 15.764423076923077 5.052455357142857  15.180288461538463 4.6481584821428585  14.444711538461537 4.3317522321428585  C 13.709134615384615 4.0153459821428585  12.89423076923077 3.8571428571428585  12 3.8571428571428585  C 11.105769230769232 3.8571428571428585  10.290865384615385 4.0153459821428585  9.555288461538462 4.3317522321428585  C 8.819711538461538 4.6481584821428585  8.235576923076923 5.052455357142857  7.802884615384615 5.5446428571428585  C 7.3701923076923075 6.036830357142854  7.038461538461538 6.5541294642857135  6.8076923076923075 7.096540178571428  C 6.5769230769230775 7.6389508928571415  6.461538461538462 8.166294642857142  6.461538461538462 8.678571428571427  Z M 22.6875 19.888392857142854  C 23.081730769230774 20.35044642857143  23.51923076923077 20.792410714285715  24 21.214285714285715  C 24.000000000000007 21.736607142857142  23.817307692307693 22.188616071428573  23.451923076923077 22.5703125  C 23.086538461538463 22.952008928571427  22.653846153846157 23.142857142857146  22.153846153846153 23.142857142857146  L 15.692307692307693 23.142857142857146  C 15.692307692307693 24.20758928571429  15.33173076923077 25.116629464285715  14.610576923076923 25.869977678571427  C 13.889423076923077 26.623325892857142  13.01923076923077 27  12 27  C 10.980769230769232 27  10.110576923076923 26.623325892857142  9.389423076923077 25.869977678571427  C 8.668269230769232 25.116629464285715  8.307692307692307 24.20758928571429  8.307692307692307 23.142857142857146  L 1.8461538461538463 23.142857142857146  C 1.3461538461538463 23.142857142857146  0.9134615384615385 22.952008928571427  0.548076923076923 22.5703125  C 0.18269230769230776 22.188616071428573  0 21.736607142857142  0 21.214285714285715  C 0.4807692307692309 20.792410714285715  0.9182692307692311 20.35044642857143  1.3125 19.888392857142854  C 1.7067307692307696 19.426339285714285  2.1153846153846154 18.826171875  2.5384615384615383 18.087890625  C 2.961538461538462 17.349609375  3.319711538461539 16.553571428571427  3.612980769230769 15.699776785714286  C 3.9062500000000004 14.845982142857142  4.146634615384616 13.81138392857143  4.334134615384616 12.595982142857142  C 4.521634615384616 11.380580357142856  4.615384615384616 10.074776785714283  4.615384615384616 8.678571428571427  C 4.615384615384616 7.151785714285713  5.177884615384616 5.7329799107142865  6.302884615384615 4.4221540178571415  C 7.427884615384615 3.111328125  8.903846153846153 2.3152901785714266  10.730769230769232 2.034040178571428  C 10.653846153846155 1.8431919642857117  10.615384615384615 1.6473214285714288  10.615384615384615 1.4464285714285723  C 10.615384615384615 1.0446428571428563  10.75 0.703124999999999  11.019230769230768 0.421875  C 11.28846153846154 0.140625000000001  11.615384615384615 0  12 0  C 12.384615384615387 0  12.711538461538463 0.140625000000001  12.98076923076923 0.421875  C 13.25 0.703124999999999  13.384615384615385 1.0446428571428563  13.384615384615385 1.4464285714285723  C 13.384615384615385 1.6473214285714288  13.346153846153847 1.8431919642857117  13.26923076923077 2.034040178571428  C 15.096153846153848 2.3152901785714266  16.572115384615387 3.111328125  17.697115384615387 4.4221540178571415  C 18.822115384615387 5.7329799107142865  19.384615384615387 7.151785714285713  19.384615384615387 8.678571428571427  C 19.384615384615387 10.074776785714283  19.478365384615387 11.380580357142856  19.665865384615387 12.595982142857142  C 19.853365384615387 13.81138392857143  20.09375 14.845982142857142  20.38701923076923 15.699776785714286  C 20.680288461538463 16.553571428571427  21.03846153846154 17.349609375  21.461538461538463 18.087890625  C 21.884615384615387 18.826171875  22.293269230769237 19.426339285714285  22.6875 19.888392857142854  Z " fill-rule="nonzero" fill="#000000" stroke="none" transform="matrix(1 0 0 1 469 6 )" />
  </g>
</svg>