<?xml version="1.0" encoding="utf-8"?>
<svg version="1.1" xmlns:xlink="http://www.w3.org/1999/xlink" width="179px" height="30px" xmlns="http://www.w3.org/2000/svg">
  <defs>
    <mask fill="white" id="clip67">
      <path d="M 0 25  L 0 5  C 0 2.2000000000000455  2.1999999999999886 0  5 0  L 174 0  C 176.79999999999995 0  179 2.2000000000000455  179 5  L 179 25  C 179 27.799999999999955  176.79999999999995 30  174 30  L 74.72727272727269 30  L 5 30  C 2.1999999999999886 30  0 27.799999999999955  0 25  Z " fill-rule="evenodd" />
    </mask>
  </defs>
  <g transform="matrix(1 0 0 1 -448 -836 )">
    <path d="M 0 25  L 0 5  C 0 2.2000000000000455  2.1999999999999886 0  5 0  L 174 0  C 176.79999999999995 0  179 2.2000000000000455  179 5  L 179 25  C 179 27.799999999999955  176.79999999999995 30  174 30  L 74.72727272727269 30  L 5 30  C 2.1999999999999886 30  0 27.799999999999955  0 25  Z " fill-rule="nonzero" fill="#3e321e" stroke="none" transform="matrix(1 0 0 1 448 836 )" />
    <path d="M 0 25  L 0 5  C 0 2.2000000000000455  2.1999999999999886 0  5 0  L 174 0  C 176.79999999999995 0  179 2.2000000000000455  179 5  L 179 25  C 179 27.799999999999955  176.79999999999995 30  174 30  L 74.72727272727269 30  L 5 30  C 2.1999999999999886 30  0 27.799999999999955  0 25  Z " stroke-width="2" stroke="#c2944e" fill="none" transform="matrix(1 0 0 1 448 836 )" mask="url(#clip67)" />
  </g>
</svg>