<?xml version="1.0" encoding="utf-8"?>
<svg version="1.1" xmlns:xlink="http://www.w3.org/1999/xlink" width="141px" height="144px" xmlns="http://www.w3.org/2000/svg">
  <g>
    <path d="M 0.5 3.0000000000000004  A 2.5 2.5 0 0 1 2.9999999999999996 0.5 L 138 0.5  A 2.5 2.5 0 0 1 140.5 3 L 140.5 141  A 2.5 2.5 0 0 1 138 143.5 L 3 143.5  A 2.5 2.5 0 0 1 0.5 141 L 0.5 3  Z " fill-rule="nonzero" fill="#1d1d1d" stroke="none" />
    <path d="M 0.5 3.0000000000000004  A 2.5 2.5 0 0 1 2.9999999999999996 0.5 L 138 0.5  A 2.5 2.5 0 0 1 140.5 3 L 140.5 141  A 2.5 2.5 0 0 1 138 143.5 L 3 143.5  A 2.5 2.5 0 0 1 0.5 141 L 0.5 3  Z " stroke-width="1" stroke="#c28300" fill="none" />
  </g>
</svg>