<?xml version="1.0" encoding="utf-8"?>
<svg version="1.1" xmlns:xlink="http://www.w3.org/1999/xlink" width="230px" height="230px" xmlns="http://www.w3.org/2000/svg">
  <g transform="matrix(1 0 0 1 -422 -471 )">
    <path d="M 422 471  L 652 471  L 652 701  L 422 701  L 422 471  " fill-rule="nonzero" fill="#cccccc" stroke="none" />
    <path d="M 438 487  L 636 487  L 636 685  L 438 685  L 438 487  " fill-rule="nonzero" fill="#ffffff" stroke="none" />
    <path d="M 558.85 540  C 549.19 540  541.6 532.41  541.6 522.75  C 541.6 513.09  549.19 505.5  558.85 505.5  C 568.51 505.5  576.1 513.09  576.1 522.75  C 576.1 532.41  568.51 540  558.85 540  " fill-rule="nonzero" fill="#cccccc" stroke="none" />
    <path d="M 444 679  L 444 576.7  L 490.5 530.2  L 555.6 567.4  L 592.8 558.1  L 630 567.4  L 630 679  L 444 679  " fill-rule="nonzero" fill="#169bd5" stroke="none" />
  </g>
</svg>