<?xml version="1.0" encoding="utf-8"?>
<svg version="1.1" xmlns:xlink="http://www.w3.org/1999/xlink" width="249px" height="50px" xmlns="http://www.w3.org/2000/svg">
  <g>
    <path d="M 1.5 3.0000000000000004  A 1.5 1.5 0 0 1 2.9999999999999996 1.5 L 246 1.5  A 1.5 1.5 0 0 1 247.5 3 L 247.5 47  A 1.5 1.5 0 0 1 246 48.5 L 3 48.5  A 1.5 1.5 0 0 1 1.5 47 L 1.5 3  Z " fill-rule="nonzero" fill="#1d1d1d" stroke="none" />
    <path d="M 1 3.0000000000000004  A 2 2 0 0 1 2.9999999999999996 1 L 246 1  A 2 2 0 0 1 248 3 L 248 47  A 2 2 0 0 1 246 49 L 3 49  A 2 2 0 0 1 1 47 L 1 3  Z " stroke-width="2" stroke="#c28300" fill="none" />
  </g>
</svg>