<?xml version="1.0" encoding="utf-8"?>
<svg version="1.1" xmlns:xlink="http://www.w3.org/1999/xlink" width="578px" height="50px" xmlns="http://www.w3.org/2000/svg">
  <g>
    <path d="M 0.5 3.0000000000000004  A 2.5 2.5 0 0 1 2.9999999999999996 0.5 L 575 0.5  A 2.5 2.5 0 0 1 577.5 3 L 577.5 47  A 2.5 2.5 0 0 1 575 49.5 L 3 49.5  A 2.5 2.5 0 0 1 0.5 47 L 0.5 3  Z " fill-rule="nonzero" fill="#1d1d1d" stroke="none" />
    <path d="M 0.5 3.0000000000000004  A 2.5 2.5 0 0 1 2.9999999999999996 0.5 L 575 0.5  A 2.5 2.5 0 0 1 577.5 3 L 577.5 47  A 2.5 2.5 0 0 1 575 49.5 L 3 49.5  A 2.5 2.5 0 0 1 0.5 47 L 0.5 3  Z " stroke-width="1" stroke="#c28300" fill="none" />
  </g>
</svg>