<?xml version="1.0" encoding="utf-8"?>
<svg version="1.1" xmlns:xlink="http://www.w3.org/1999/xlink" width="19px" height="17px" xmlns="http://www.w3.org/2000/svg">
  <g transform="matrix(1 0 0 1 -551 -7 )">
    <path d="M 14.370949074074073 11.167317708333334  C 15.250578703703704 11.167317708333334  16.324459876543212 10.82790798611111  17.59259259259259 10.149088541666666  L 17.59259259259259 3.3313802083333326  C 16.35378086419753 4.002821180555554  15.232253086419755 4.338541666666667  14.22800925925926 4.338541666666667  C 13.62692901234568 4.338541666666667  13.095486111111112 4.220486111111111  12.633680555555555 3.984375  C 11.900655864197532 3.6228298611111103  11.226273148148149 3.3406032986111103  10.610532407407407 3.1376953125  C 9.994791666666668 2.934787326388888  9.342399691358025 2.8333333333333326  8.653356481481481 2.8333333333333326  C 7.385223765432099 2.8333333333333326  5.90817901234568 3.301866319444443  4.222222222222222 4.238932291666667  L 4.222222222222222 10.868489583333334  C 6.018132716049384 10.034722222222221  7.605131172839507 9.617838541666666  8.983217592592593 9.617838541666666  C 9.386381172839508 9.617838541666666  9.765721450617285 9.6455078125  10.121238425925927 9.700846354166666  C 10.47675540123457 9.756184895833334  10.8359375 9.852105034722221  11.198784722222221 9.988606770833334  C 11.561631944444445 10.125108506944445  11.843846450617285 10.23947482638889  12.04542824074074 10.331705729166666  C 12.247010030864198 10.423936631944445  12.549382716049383 10.569661458333334  12.952546296296296 10.768880208333334  L 13.260416666666666 10.923828125  C 13.582947530864198 11.086154513888886  13.953125 11.167317708333334  14.370949074074073 11.167317708333334  Z M 2.402488425925926 0.4150390625  C 2.677372685185185 0.6917317708333327  2.814814814814815 1.025607638888888  2.814814814814815 1.4166666666666674  C 2.814814814814815 1.6749131944444429  2.7506751543209877 1.9110243055555531  2.6223958333333335 2.125  C 2.494116512345679 2.338975694444443  2.3236882716049387 2.508680555555553  2.111111111111111 2.6341145833333326  L 2.111111111111111 16.645833333333332  C 2.111111111111111 16.749131944444443  2.078125 16.833984375  2.0121527777777777 16.900390625  C 1.9461805555555556 16.966796875  1.8618827160493827 17  1.759259259259259 17  L 1.0555555555555556 17  C 0.9529320987654323 17  0.8686342592592593 16.966796875  0.8026620370370371 16.900390625  C 0.7366898148148148 16.833984375  0.7037037037037037 16.749131944444443  1 16.645833333333332  L 1 2.6341145833333326  C 0.49112654320987675 2.508680555555553  0.32069830246913605 2.338975694444443  0.19241898148148148 2.125  C 0.06413966049382726 1.9110243055555531  0 1.6749131944444429  0 1.4166666666666674  C 0 1.025607638888888  0.13744212962962962 0.6917317708333327  0.4123263888888889 0.4150390625  C 0.6872106481481481 0.1383463541666673  1.0189043209876545 0  1.4074074074074074 0  C 1.7959104938271606 0  2.127604166666667 0.1383463541666673  2.402488425925926 0.4150390625  Z M 18.65914351851852 1.5162760416666674  C 18.886381172839506 1.6638454861111103  19 1.8667534722222205  19 2.125  L 19 10.569661458333334  C 19 10.857421875  18.87172067901235 11.067708333333334  18.615162037037038 11.200520833333334  C 18.541859567901238 11.237413194444445  18.479552469135804 11.270616319444445  18.42824074074074 11.300130208333334  C 16.830246913580247 12.15603298611111  15.477816358024691 12.583984375  14.370949074074073 12.583984375  C 13.725887345679014 12.583984375  13.146797839506174 12.45486111111111  12.633680555555555 12.196614583333334  L 12.325810185185185 12.041666666666666  C 11.85667438271605 11.798177083333334  11.49382716049383 11.62109375  11.237268518518519 11.510416666666666  C 10.98070987654321 11.399739583333334  10.64718364197531 11.29275173611111  10.236689814814815 11.189453125  C 9.826195987654321 11.086154513888886  9.408371913580249 11.034505208333334  8.983217592592593 11.034505208333334  C 8.235532407407407 11.034505208333334  7.372395833333333 11.196831597222221  6.39380787037037 11.521484375  C 5.415219907407407 11.846137152777775  4.577739197530865 12.22243923611111  3.881365740740741 12.650390625  C 3.7714120370370376 12.716796875  3.6504629629629632 12.75  3.518518518518518 12.75  C 3.401234567901235 12.75  3.283950617283951 12.72048611111111  3.1666666666666665 12.661458333333334  C 2.932098765432099 12.52126736111111  2.814814814814815 12.314670138888886  2.814814814814815 12.041666666666666  L 2.814814814814815 3.8294270833333326  C 2.814814814814815 3.571180555555553  2.9284336419753094 3.368272569444443  3.1556712962962963 3.220703125  C 3.4122299382716057 3.0657552083333326  3.6999421296296298 2.9089626736111103  4.01880787037037 2.7503255208333326  C 4.337673611111111 2.591688368055553  4.755497685185185 2.3998480902777777  5.272280092592593 2.1748046875  C 5.7890625 1.9497612847222205  6.3479938271604945 1.7671440972222205  6.949074074074074 1.626953125  C 7.550154320987655 1.4867621527777777  8.118248456790123 1.4166666666666674  8.653356481481481 1.4166666666666674  C 9.47434413580247 1.4166666666666674  10.240354938271606 1.5310329861111103  10.951388888888888 1.759765625  C 11.662422839506174 1.988498263888888  12.42843364197531 2.305772569444443  13.249421296296296 2.7115885416666674  C 13.527970679012347 2.851779513888888  13.854166666666666 2.921875  14.22800925925926 2.921875  C 15.12229938271605 2.921875  16.25848765432099 2.508680555555553  17.636574074074073 1.6822916666666674  C 17.797839506172842 1.59375  17.911458333333336 1.5310329861111103  17.977430555555557 1.494140625  C 18.204668209876544 1.3760850694444429  18.43190586419753 1.3834635416666674  18.65914351851852 1.5162760416666674  Z " fill-rule="nonzero" fill="#8a0000" stroke="none" transform="matrix(1 0 0 1 551 7 )" />
  </g>
</svg>