<?xml version="1.0" encoding="utf-8"?>
<svg version="1.1" xmlns:xlink="http://www.w3.org/1999/xlink" width="16px" height="18px" xmlns="http://www.w3.org/2000/svg">
  <g transform="matrix(1 0 0 1 -527 -6 )">
    <path d="M 5.715909090909091 6.85546875  C 5.784090909090909 6.92578125  5.818181818181818 7.015625  5.818181818181818 7.125000000000001  L 5.818181818181818 13.875  C 5.818181818181818 13.984375  5.784090909090909 14.07421875  5.715909090909091 14.14453125  C 5.6477272727272725 14.21484375  5.560606060606061 14.25  5.454545454545454 14.25  L 4.7272727272727275 14.25  C 4.621212121212122 14.25  4.53409090909091 14.21484375  4.465909090909091 14.14453125  C 4.3977272727272725 14.07421875  4.363636363636363 13.984375  4.363636363636363 13.875  L 4.363636363636363 7.125000000000001  C 4.363636363636363 7.015625  4.3977272727272725 6.92578125  4.465909090909091 6.85546875  C 4.53409090909091 6.78515625  4.621212121212122 6.75  4.7272727272727275 6.75  L 5.454545454545454 6.75  C 5.560606060606061 6.75  5.6477272727272725 6.78515625  5.715909090909091 6.85546875  Z M 8.625 6.85546875  C 8.693181818181818 6.92578125  8.727272727272727 7.015625  8.727272727272727 7.125000000000001  L 8.727272727272727 13.875  C 8.727272727272727 13.984375  8.693181818181818 14.07421875  8.625 14.14453125  C 8.556818181818182 14.21484375  8.46969696969697 14.25  8.363636363636363 14.25  L 7.636363636363637 14.25  C 7.530303030303031 14.25  7.443181818181818 14.21484375  7.375 14.14453125  C 7.306818181818182 14.07421875  7.2727272727272725 13.984375  7.2727272727272725 13.875  L 7.2727272727272725 7.125000000000001  C 7.2727272727272725 7.015625  7.306818181818182 6.92578125  7.375 6.85546875  C 7.443181818181818 6.78515625  7.530303030303031 6.75  7.636363636363637 6.75  L 8.363636363636363 6.75  C 8.46969696969697 6.75  8.556818181818182 6.78515625  8.625 6.85546875  Z M 11.534090909090908 6.85546875  C 11.602272727272727 6.92578125  11.636363636363637 7.015625  11.636363636363637 7.125000000000001  L 11.636363636363637 13.875  C 11.636363636363637 13.984375  11.602272727272727 14.07421875  11.534090909090908 14.14453125  C 11.465909090909092 14.21484375  11.378787878787879 14.25  11.272727272727273 14.25  L 10.545454545454545 14.25  C 10.43939393939394 14.25  10.352272727272727 14.21484375  10.284090909090908 14.14453125  C 10.215909090909092 14.07421875  10.181818181818182 13.984375  10.181818181818182 13.875  L 10.181818181818182 7.125000000000001  C 10.181818181818182 7.015625  10.215909090909092 6.92578125  10.284090909090908 6.85546875  C 10.352272727272727 6.78515625  10.43939393939394 6.75  10.545454545454545 6.75  L 11.272727272727273 6.75  C 11.378787878787879 6.75  11.465909090909092 6.78515625  11.534090909090908 6.85546875  Z M 13.011363636363637 16.083984375  C 13.06439393939394 15.939453125  13.090909090909092 15.78125  13 15.609375  L 13 4.5  L 3 4.5  L 3 15.609375  C 2.909090909090909 15.78125  2.935606060606061 15.939453125  2.9886363636363638 16.083984375  C 3.041666666666667 16.228515625  3.096590909090909 16.333984375  3.153409090909091 16.400390625  C 3.210227272727273 16.466796875  3.25 16.5  3.272727272727273 16.5  L 12.727272727272727 16.5  C 12.75 16.5  12.789772727272727 16.466796875  12.846590909090908 16.400390625  C 12.903409090909092 16.333984375  12.958333333333336 16.228515625  13.011363636363637 16.083984375  Z M 6.011363636363637 1.6289062499999993  L 5.454545454545454 2.999999999999999  L 10.545454545454545 2.999999999999999  L 10 1.6289062499999993  C 9.946969696969699 1.5585937499999993  9.882575757575758 1.5156249999999991  9.806818181818182 1.5000000000000007  L 6.204545454545454 1.5000000000000007  C 6.128787878787879 1.5156249999999991  6.06439393939394 1.5585937499999993  6.011363636363637 1.6289062499999993  Z M 15.897727272727273 3.105468749999999  C 15.965909090909092 3.175781249999999  16 3.265624999999999  16 3.375  L 16 4.124999999999999  C 16 4.234374999999998  15.965909090909092 4.32421875  15.897727272727273 4.39453125  C 15.829545454545455 4.46484375  15.742424242424244 4.5  15.636363636363637 4.5  L 14.545454545454545 4.5  L 14.545454545454545 15.609375  C 14.545454545454545 16.2578125  14.367424242424244 16.818359375  14.011363636363637 17.291015625  C 13.655303030303031 17.763671875  13.227272727272727 18  12.727272727272727 18  L 3.272727272727273 18  C 2.772727272727273 18  2.34469696969697 17.771484375  1.9886363636363635 17.314453125  C 1.6325757575757578 16.857421875  1.4545454545454546 16.3046875  1.4545454545454546 15.65625  L 1.4545454545454546 4.5  L 0.36363636363636365 4.5  C 0.25757575757575757 4.5  0.17045454545454547 4.46484375  0.10227272727272728 4.39453125  C 0.03409090909090909 4.32421875  0 4.234374999999998  0 4.124999999999999  L 0 3.375  C 0 3.265624999999999  0.03409090909090909 3.175781249999999  0.10227272727272728 3.105468749999999  C 0.17045454545454547 3.035156249999999  0.25757575757575757 2.999999999999999  0.36363636363636365 2.999999999999999  L 3.875 2.999999999999999  L 4.670454545454546 1.0429687500000007  C 4.78409090909091 0.7539062499999984  4.988636363636364 0.5078124999999984  5.284090909090909 0.30468750000000067  C 5.579545454545455 0.10156249999999889  5.878787878787879 0  6.181818181818182 0  L 9.818181818181818 0  C 10.121212121212123 0  10.420454545454545 0.10156249999999889  10.715909090909092 0.30468750000000067  C 11.011363636363637 0.5078124999999984  11.215909090909092 0.7539062499999984  11.329545454545455 1.0429687500000007  L 12.125 2.999999999999999  L 15.636363636363637 2.999999999999999  C 15.742424242424244 2.999999999999999  15.829545454545455 3.035156249999999  15.897727272727273 3.105468749999999  Z " fill-rule="nonzero" fill="#545454" stroke="none" transform="matrix(1 0 0 1 527 6 )" />
  </g>
</svg>