<?xml version="1.0" encoding="utf-8"?>
<svg version="1.1" xmlns:xlink="http://www.w3.org/1999/xlink" width="16px" height="16px" xmlns="http://www.w3.org/2000/svg">
  <g transform="matrix(1 0 0 1 -1316 -402 )">
    <path d="M 9.239583333333334 4.09375  C 9.302083333333334 4.15625  9.333333333333334 4.236111111111109  9.333333333333334 4.333333333333334  L 9.333333333333334 9  C 9.333333333333334 9.097222222222221  9.302083333333334 9.177083333333332  9.239583333333334 9.239583333333332  C 9.177083333333334 9.302083333333332  9.097222222222223 9.333333333333332  9 9.333333333333332  L 5.666666666666667 9.333333333333332  C 5.5694444444444455 9.333333333333332  5.489583333333333 9.302083333333332  5.427083333333333 9.239583333333332  C 5.364583333333333 9.177083333333332  5.333333333333333 9.097222222222221  5.333333333333333 9  L 5.333333333333333 8.333333333333332  C 5.333333333333333 8.23611111111111  5.364583333333333 8.15625  5.427083333333333 8.09375  C 5.489583333333333 8.03125  5.5694444444444455 8  5.666666666666667 8  L 8 8  L 8 4.333333333333334  C 8 4.236111111111109  8.03125 4.15625  8.09375 4.09375  C 8.156250000000002 4.03125  8.236111111111112 4  8.333333333333334 4  L 9 4  C 9.097222222222223 4  9.177083333333334 4.03125  9.239583333333334 4.09375  Z M 12.90625 10.84375  C 13.413194444444445 9.975694444444443  13.666666666666666 9.027777777777779  13.666666666666666 8  C 13.666666666666666 6.972222222222221  13.413194444444445 6.024305555555555  12.90625 5.15625  C 12.399305555555557 4.288194444444443  11.711805555555557 3.600694444444443  10.84375 3.09375  C 9.975694444444445 2.5868055555555554  9.027777777777779 2.333333333333334  8 2.333333333333334  C 6.972222222222222 2.333333333333334  6.024305555555556 2.5868055555555554  5.15625 3.09375  C 4.288194444444445 3.600694444444443  3.6006944444444446 4.288194444444443  3.09375 5.15625  C 2.586805555555556 6.024305555555555  2.3333333333333335 6.972222222222221  2.3333333333333335 8  C 2.3333333333333335 9.027777777777779  2.586805555555556 9.975694444444443  3.09375 10.84375  C 3.6006944444444446 11.711805555555554  4.288194444444445 12.399305555555555  5.15625 12.90625  C 6.024305555555556 13.413194444444445  6.972222222222222 13.666666666666666  8 13.666666666666666  C 9.027777777777779 13.666666666666666  9.975694444444445 13.413194444444445  10.84375 12.90625  C 11.711805555555557 12.399305555555555  12.399305555555557 11.711805555555554  12.90625 10.84375  Z M 14.927083333333334 3.984375  C 15.642361111111109 5.210069444444443  16 6.548611111111109  16 8  C 16 9.45138888888889  15.642361111111109 10.789930555555554  14.927083333333334 12.015625  C 14.211805555555557 13.241319444444445  13.241319444444445 14.211805555555555  12.015625 14.927083333333334  C 10.789930555555557 15.642361111111112  9.45138888888889 16  8 16  C 6.548611111111112 16  5.210069444444445 15.642361111111112  3.984375 14.927083333333334  C 2.758680555555556 14.211805555555555  1.7881944444444446 13.241319444444445  1.0729166666666667 12.015625  C 0.35763888888888884 10.789930555555554  0 9.45138888888889  0 8  C 0 6.548611111111109  0.35763888888888884 5.210069444444443  1.0729166666666667 3.984375  C 1.7881944444444446 2.7586805555555554  2.758680555555556 1.7881944444444429  3.984375 1.072916666666666  C 5.210069444444445 0.3576388888888875  6.548611111111112 0  8 0  C 9.45138888888889 0  10.789930555555557 0.3576388888888875  12.015625 1.072916666666666  C 13.241319444444445 1.7881944444444429  14.211805555555557 2.7586805555555554  14.927083333333334 3.984375  Z " fill-rule="nonzero" fill="#fdfdfd" stroke="none" transform="matrix(1 0 0 1 1316 402 )" />
  </g>
</svg>