<?xml version="1.0" encoding="utf-8"?>
<svg version="1.1" xmlns:xlink="http://www.w3.org/1999/xlink" width="24px" height="13px" xmlns="http://www.w3.org/2000/svg">
  <g transform="matrix(1 0 0 1 -49 -62 )">
    <path d="M 23.759519038076153 1.34020618556701  C 23.919839679358716 1.4891179839633408  24 1.660366552119128  24 1.8539518900343648  C 24 2.0475372279495976  23.919839679358716 2.2187857961053816  23.759519038076153 2.3676975945017187  L 12.553106212424849 12.776632302405497  C 12.392785571142285 12.92554410080183  12.208416833667336 13  12 13  C 11.791583166332668 13  11.607214428857716 12.92554410080183  11.44689378757515 12.776632302405497  L 0.24048096192384769 2.3676975945017187  C 0.0801603206412828 2.2187857961053816  0 2.0475372279495976  0 1.8539518900343648  C 0 1.660366552119128  0.0801603206412828 1.4891179839633408  0.24048096192384769 1.34020618556701  L 1.442885771543086 0.22336769759450237  C 1.6032064128256518 0.07445589919816553  1.7875751503006014 0  1.9959919839679359 0  C 2.204408817635271 0  2.3887775551102206 0.07445589919816553  2.5490981963927855 0.22336769759450237  L 12 9.00171821305842  L 21.450901803607216 0.22336769759450237  C 21.61122244488978 0.07445589919816553  21.79559118236473 0  22.004008016032063 0  C 22.212424849699403 0  22.39679358717435 0.07445589919816553  22.557114228456914 0.22336769759450237  L 23.759519038076153 1.34020618556701  Z " fill-rule="nonzero" fill="#b5b5b7" stroke="none" transform="matrix(1 0 0 1 49 62 )" />
  </g>
</svg>