<?xml version="1.0" encoding="utf-8"?>
<svg version="1.1" xmlns:xlink="http://www.w3.org/1999/xlink" width="24px" height="13px" xmlns="http://www.w3.org/2000/svg">
  <g transform="matrix(1 0 0 1 -49 -15 )">
    <path d="M 23.759519038076153 10.632302405498281  C 23.919839679358716 10.781214203894613  24 10.9524627720504  24 11.146048109965637  C 24 11.339633447880868  23.919839679358716 11.510882016036653  23.759519038076153 11.659793814432991  L 22.557114228456914 12.776632302405497  C 22.39679358717435 12.92554410080183  22.212424849699403 13  22.004008016032063 13  C 21.79559118236473 13  21.61122244488978 12.92554410080183  21.450901803607216 12.776632302405497  L 12 3.9982817869415808  L 2.5490981963927855 12.776632302405497  C 2.3887775551102206 12.92554410080183  2.204408817635271 13  1.9959919839679359 13  C 1.7875751503006014 13  1.6032064128256518 12.92554410080183  1.442885771543086 12.776632302405497  L 0.24048096192384769 11.659793814432991  C 0.0801603206412828 11.510882016036653  0 11.339633447880868  0 11.146048109965637  C 0 10.9524627720504  0.0801603206412828 10.781214203894613  0.24048096192384769 10.632302405498281  L 11.44689378757515 0.22336769759450237  C 11.607214428857716 0.07445589919816553  11.791583166332668 0  12 0  C 12.208416833667336 0  12.392785571142285 0.07445589919816553  12.553106212424849 0.22336769759450237  L 23.759519038076153 10.632302405498281  Z " fill-rule="nonzero" fill="#c28300" stroke="none" transform="matrix(1 0 0 1 49 15 )" />
  </g>
</svg>