<?xml version="1.0" encoding="utf-8"?>
<svg version="1.1" xmlns:xlink="http://www.w3.org/1999/xlink" width="1006px" height="21px" xmlns="http://www.w3.org/2000/svg">
  <defs>
    <mask fill="white" id="clip36">
      <path d="M 0 16  L 0 5  C 0 2.2000000000000455  4.907317073170833 0  11.1529933481153 0  L 505.4597697658175 0  L 994.8470066518847 0  C 1001.0926829268292 0  1006 2.2000000000000455  1006 5  L 1006 16  C 1006 18.799999999999955  1001.0926829268292 21  994.8470066518847 21  L 532.9603013091154 21  L 11.1529933481153 21  C 4.907317073170833 21  0 18.799999999999955  0 16  Z " fill-rule="evenodd" />
    </mask>
  </defs>
  <g transform="matrix(1 0 0 1 -200 -1247 )">
    <path d="M 0 16  L 0 5  C 0 2.2000000000000455  4.907317073170833 0  11.1529933481153 0  L 505.4597697658175 0  L 994.8470066518847 0  C 1001.0926829268292 0  1006 2.2000000000000455  1006 5  L 1006 16  C 1006 18.799999999999955  1001.0926829268292 21  994.8470066518847 21  L 532.9603013091154 21  L 11.1529933481153 21  C 4.907317073170833 21  0 18.799999999999955  0 16  Z " fill-rule="nonzero" fill="#c28300" stroke="none" transform="matrix(1 0 0 1 200 1247 )" />
    <path d="M 0 16  L 0 5  C 0 2.2000000000000455  4.907317073170833 0  11.1529933481153 0  L 505.4597697658175 0  L 994.8470066518847 0  C 1001.0926829268292 0  1006 2.2000000000000455  1006 5  L 1006 16  C 1006 18.799999999999955  1001.0926829268292 21  994.8470066518847 21  L 532.9603013091154 21  L 11.1529933481153 21  C 4.907317073170833 21  0 18.799999999999955  0 16  Z " stroke-width="2" stroke="#c2944e" fill="none" transform="matrix(1 0 0 1 200 1247 )" mask="url(#clip36)" />
  </g>
</svg>