<?xml version="1.0" encoding="utf-8"?>
<svg version="1.1" xmlns:xlink="http://www.w3.org/1999/xlink" width="451px" height="21px" xmlns="http://www.w3.org/2000/svg">
  <defs>
    <mask fill="white" id="clip38">
      <path d="M 0 16  L 0 5  C 0 2.2000000000000455  2.2000000000000455 0  5 0  L 226.60273972602752 0  L 446 0  C 448.79999999999995 0  451 2.2000000000000455  451 5  L 451 16  C 451 18.799999999999955  448.79999999999995 21  446 21  L 238.93150684931516 21  L 5 21  C 2.2000000000000455 21  0 18.799999999999955  0 16  Z " fill-rule="evenodd" />
    </mask>
  </defs>
  <g transform="matrix(1 0 0 1 -1248 -558 )">
    <path d="M 0 16  L 0 5  C 0 2.2000000000000455  2.2000000000000455 0  5 0  L 226.60273972602752 0  L 446 0  C 448.79999999999995 0  451 2.2000000000000455  451 5  L 451 16  C 451 18.799999999999955  448.79999999999995 21  446 21  L 238.93150684931516 21  L 5 21  C 2.2000000000000455 21  0 18.799999999999955  0 16  Z " fill-rule="nonzero" fill="#c28300" stroke="none" transform="matrix(1 0 0 1 1248 558 )" />
    <path d="M 0 16  L 0 5  C 0 2.2000000000000455  2.2000000000000455 0  5 0  L 226.60273972602752 0  L 446 0  C 448.79999999999995 0  451 2.2000000000000455  451 5  L 451 16  C 451 18.799999999999955  448.79999999999995 21  446 21  L 238.93150684931516 21  L 5 21  C 2.2000000000000455 21  0 18.799999999999955  0 16  Z " stroke-width="2" stroke="#c2944e" fill="none" transform="matrix(1 0 0 1 1248 558 )" mask="url(#clip38)" />
  </g>
</svg>