<?xml version="1.0" encoding="utf-8"?>
<svg version="1.1" xmlns:xlink="http://www.w3.org/1999/xlink" width="46px" height="50px" xmlns="http://www.w3.org/2000/svg">
  <g transform="matrix(1 0 0 1 -458 -51 )">
    <path d="M 23 47.767857142857146  C 23.2948717948718 47.767857142857146  23.442307692307697 47.61904761904762  23.44230769230769 47.32142857142857  C 23.442307692307697 47.023809523809526  23.2948717948718 46.875  23 46.875  C 21.91266025641026 46.875  20.977363782051285 46.47972470238095  20.194110576923077 45.689174107142854  C 19.410857371794872 44.89862351190476  19.019230769230766 43.954613095238095  19.019230769230766 42.85714285714286  C 19.019230769230766 42.55952380952381  18.871794871794872 42.410714285714285  18.576923076923077 42.410714285714285  C 18.282051282051285 42.410714285714285  18.134615384615383 42.55952380952381  18.134615384615383 42.85714285714286  C 18.134615384615383 44.21502976190476  18.60917467948718 45.37295386904762  19.558293269230766 46.33091517857143  C 20.50741185897436 47.28887648809524  21.654647435897438 47.767857142857146  23 47.767857142857146  Z M 43.484375 36.83035714285714  C 44.23998397435898 37.686011904761905  45.07852564102564 38.504464285714285  46 39.285714285714285  C 46.00000000000001 40.25297619047619  45.649839743589745 41.090029761904766  44.94951923076923 41.796875  C 44.24919871794872 42.503720238095234  43.419871794871796 42.85714285714286  42.46153846153847 42  L 30.076923076923077 42  C 30.076923076923077 44.82886904761905  29.38581730769231 46.512276785714285  28.003605769230766 47.90736607142857  C 26.621394230769234 49.302455357142854  24.953525641025646 50  23 50  C 21.04647435897436 50  19.378605769230766 49.302455357142854  17.996394230769234 47.90736607142857  C 16.614182692307693 46.512276785714285  15.923076923076923 44.82886904761905  15.923076923076923 42  L 3.5384615384615388 42  C 2.5801282051282057 42.85714285714286  1.7508012820512822 42.503720238095234  1.0504807692307692 41.796875  C 0.3501602564102565 41.090029761904766  0 40.25297619047619  0 39.285714285714285  C 0.9214743589743593 38.504464285714285  1.760016025641026 37.686011904761905  2.515625 36.83035714285714  C 3.271233974358975 35.97470238095238  4.05448717948718 34.86328125  4.865384615384615 33.49609375  C 5.676282051282052 32.12890625  6.36278044871795 30.6547619047619  6.924879807692308 29.073660714285715  C 7.486979166666668 27.492559523809522  7.947716346153847 25.576636904761905  8.307091346153847 23.325892857142854  C 8.666466346153847 21.075148809523807  8.846153846153847 18.65699404761904  8.846153846153847 16.07142857142857  C 8.846153846153847 13.244047619047617  9.924278846153847 10.616629464285715  12.080528846153845 8.189174107142854  C 14.236778846153845 5.76171875  17.065705128205128 4.2875744047619015  20.567307692307693 3.76674107142857  C 20.419871794871796 3.413318452380948  20.346153846153847 3.050595238095238  20.346153846153847 2.67857142857143  C 20.346153846153847 1.9345238095238082  20.604166666666668 1.3020833333333315  21.120192307692307 0.78125  C 21.636217948717952 0.2604166666666685  22.262820512820515 0  23 0  C 23.73717948717949 0  24.363782051282058 0.2604166666666685  24.87980769230769 0.78125  C 25.395833333333336 1.3020833333333315  25.653846153846153 1.9345238095238082  25.653846153846153 2.67857142857143  C 25.653846153846153 3.050595238095238  25.580128205128204 3.413318452380948  25.43269230769231 3.76674107142857  C 28.934294871794876 4.2875744047619015  31.763221153846153 5.76171875  33.91947115384615 8.189174107142854  C 36.07572115384615 10.616629464285715  37.15384615384615 13.244047619047617  37.15384615384615 16.07142857142857  C 37.15384615384615 18.65699404761904  37.33353365384615 21.075148809523807  37.69290865384615 23.325892857142854  C 38.05228365384615 25.576636904761905  38.513020833333336 27.492559523809522  39.07512019230769 29.073660714285715  C 39.63721955128206 30.6547619047619  40.32371794871795 32.12890625  41.13461538461539 33.49609375  C 41.945512820512825 34.86328125  42.728766025641036 35.97470238095238  43.484375 36.83035714285714  Z " fill-rule="nonzero" fill="#ad761b" stroke="none" transform="matrix(1 0 0 1 458 51 )" />
  </g>
</svg>