<?xml version="1.0" encoding="utf-8"?>
<svg version="1.1" xmlns:xlink="http://www.w3.org/1999/xlink" width="72px" height="72px" xmlns="http://www.w3.org/2000/svg">
  <g transform="matrix(1 0 0 1 -532 -40 )">
    <path d="M 50.30357142857143 63.34151785714286  C 54.72321428571429 60.99776785714286  58.352678571428584 57.81696428571428  61.19196428571429 53.79910714285714  C 60.602678571428584 49.64732142857143  59.43080357142858 46.198660714285715  57.67633928571429 43.453125  C 55.921875 40.707589285714285  53.45089285714286 39.12053571428571  50.26339285714286 38.69196428571428  C 48.46875 40.67410714285714  46.332589285714285 42.22098214285714  43.85491071428571 43.33258928571428  C 41.37723214285715 44.44419642857143  38.75892857142858 45  36 45  C 33.24107142857143 45  30.62276785714286 44.44419642857143  28.145089285714285 43.33258928571428  C 25.66741071428572 42.22098214285714  23.53125 40.67410714285714  21.736607142857146 38.69196428571428  C 18.549107142857142 39.12053571428571  16.078125 40.707589285714285  14.323660714285715 43.453125  C 12.56919642857143 46.198660714285715  11.397321428571429 49.64732142857143  10.808035714285715 53.79910714285714  C 13.647321428571429 57.81696428571428  17.276785714285715 60.99776785714286  21.69642857142857 63.34151785714286  C 26.11607142857143 65.68526785714286  30.883928571428577 66.85714285714286  36 66.85714285714286  C 41.11607142857143 66.85714285714286  45.88392857142857 65.68526785714286  50.30357142857143 63.34151785714286  Z M 46.90848214285714 36.62276785714286  C 49.921875 33.609375  51.42857142857143 29.97321428571429  51.42857142857143 25.71428571428571  C 51.42857142857143 21.45535714285714  49.921875 17.81919642857143  46.90848214285714 14.80580357142857  C 43.89508928571429 11.792410714285712  40.25892857142857 10.285714285714288  36 10.285714285714288  C 31.74107142857143 10.285714285714288  28.104910714285715 11.792410714285712  25.091517857142854 14.80580357142857  C 22.078125 17.81919642857143  20.57142857142857 21.45535714285714  20.57142857142857 25.71428571428571  C 20.57142857142857 29.97321428571429  22.078125 33.609375  25.091517857142854 36.62276785714286  C 28.104910714285715 39.63616071428572  31.74107142857143 41.14285714285714  36 41.14285714285714  C 40.25892857142857 41.14285714285714  43.89508928571429 39.63616071428572  46.90848214285714 36.62276785714286  Z M 69.14732142857143 22.01785714285714  C 71.04910714285715 26.464285714285708  72 31.124999999999996  72 36  C 72 40.87499999999999  71.04910714285715 45.52901785714285  69.14732142857143 49.96205357142857  C 67.24553571428572 54.395089285714285  64.69419642857144 58.22544642857143  61.49330357142857 61.453125  C 58.29241071428572 64.68080357142857  54.46875000000001 67.24553571428572  50.02232142857143 69.14732142857143  C 45.57589285714286 71.04910714285714  40.90178571428571 72  36 72  C 31.125 72  26.464285714285715 71.04910714285714  22.017857142857146 69.14732142857143  C 17.571428571428573 67.24553571428572  13.741071428571427 64.6875  10.526785714285715 61.47321428571428  C 7.3125 58.25892857142857  4.754464285714286 54.42857142857143  2.852678571428571 49.98214285714286  C 0.950892857142857 45.535714285714285  0 40.87499999999999  0 36  C 0 31.124999999999996  0.950892857142857 26.464285714285708  2.852678571428571 22.01785714285714  C 4.754464285714286 17.571428571428566  7.3125 13.74107142857143  10.526785714285715 10.526785714285712  C 13.741071428571427 7.3125  17.571428571428573 4.754464285714284  22.017857142857146 2.8526785714285703  C 26.464285714285715 0.9508928571428568  31.125 0  36 0  C 40.875 0  45.53571428571429 0.9508928571428568  49.98214285714286 2.8526785714285703  C 54.42857142857144 4.754464285714284  58.25892857142857 7.3125  61.47321428571429 10.526785714285712  C 64.68750000000001 13.74107142857143  67.24553571428572 17.571428571428566  69.14732142857143 22.01785714285714  Z " fill-rule="nonzero" fill="#c28300" stroke="none" transform="matrix(1 0 0 1 532 40 )" />
  </g>
</svg>