<?xml version="1.0" encoding="utf-8"?>
<svg version="1.1" xmlns:xlink="http://www.w3.org/1999/xlink" width="62px" height="48px" xmlns="http://www.w3.org/2000/svg">
  <g transform="matrix(1 0 0 1 -379 -52 )">
    <path d="M 45.46205357142858 8.687012065294535  C 47.630208333333336 11.366926898509575  48.714285714285715 14.285308729595457  48.714285714285715 17.44215755855216  C 48.714285714285715 20.59900638750887  47.630208333333336 23.517388218594746  45.46205357142858 26.197303051809797  C 43.29389880952382 28.877217885024834  40.33575148809524 30.995031937544354  36.58761160714286 32.550745209368344  C 32.839471726190474 34.10645848119233  28.762648809523814 34.88431511710433  24.357142857142858 34.88431511710433  C 22.37351190476191 34.88431511710433  20.34375 34.7026259758694  18.267857142857142 34.33924769339958  C 15.407738095238097 36.337828246983676  12.201636904761907 37.79134137686302  8.649553571428571 38.69978708303761  C 7.819196428571428 38.904187366926905  6.827380952380953 39.08587650816182  5.674107142857142 39.24485450674237  L 5.5703125 39.24485450674237  C 5.316592261904763 39.24485450674237  5.080171130952381 39.15400993612491  4.861049107142858 38.972320794889995  C 4.641927083333334 38.790631653655076  4.509300595238096 38.552164655784246  4.463169642857142 38.256919801277505  C 4.440104166666667 38.18878637331441  4.428571428571428 38.11497515968772  4.428571428571428 38.03548616039745  C 4.428571428571428 37.95599716110717  4.434337797619048 37.88218594748048  4.445870535714286 37.81405251951739  C 4.457403273809524 37.74591909155429  4.48046875 37.6777856635912  4.515066964285714 37.609652235628104  L 4.6015625 37.43931866572037  C 4.6015625 37.43931866572037  4.641927083333334 37.37686302342087  4.72265625 37.25195173882186  C 4.803385416666667 37.12704045422285  4.8495163690476195 37.07026259758695  4.861049107142858 37.081618168914126  C 4.872581845238096 37.092973740241305  4.924479166666667 37.0361958836054  5.016741071428572 36.911284599006386  C 5.109002976190477 36.78637331440738  5.155133928571428 36.73527324343506  5.155133928571428 36.757984386089426  C 5.270461309523809 36.62171753016324  5.535714285714286 36.33782824698367  5.950892857142858 35.90631653655075  C 6.366071428571428 35.47480482611781  6.6659226190476195 35.13981547196593  6.850446428571428 34.9013484740951  C 7.034970238095238 34.66288147622427  7.294456845238096 34.33356990773598  7.62890625 33.913413768630235  C 7.963355654761906 33.49325762952448  8.251674107142856 33.05606813342796  8.493861607142856 32.60184528034067  C 8.736049107142856 32.14762242725337  8.972470238095239 31.647977288857348  9.203125 31.10290986515259  C 6.343005952380952 29.467707594038327  4.094122023809524 27.45777146912704  2.456473214285714 25.073101490418736  C 0.8188244047619047 22.688431511710434  0 20.14478353442157  0 17.44215755855216  C 0 14.285308729595457  1.084077380952381 11.366926898509575  3.252232142857143 8.687012065294535  C 5.420386904761905 6.007097232079484  8.378534226190476 3.889283179559966  12.126674107142856 2.333569907735985  C 15.874813988095239 0.7778566359119932  19.95163690476191 0  24.357142857142858 0  C 28.762648809523814 0  32.839471726190474 0.7778566359119932  36.58761160714286 2.333569907735985  C 40.33575148809524 3.889283179559966  43.29389880952382 6.007097232079484  45.46205357142858 8.687012065294535  Z M 59.40513392857142 18.32789212207239  C 61.13504464285714 20.757984386089422  62 23.369765791341376  62 26.163236337828245  C 62 28.88857345635202  61.1811755952381 31.437899219304466  59.543526785714285 33.811213626685586  C 57.90587797619048 36.184528034066716  55.65699404761906 38.18878637331441  52.796875 39.823988644428674  C 53.02752976190476 40.369056068133425  53.26395089285714 40.86870120652946  53.50613839285714 41.322924059616746  C 53.74832589285715 41.77714691270404  54.0366443452381 42.21433640880057  54.37109375 42.63449254790632  C 54.705543154761905 43.05464868701206  54.965029761904766 43.383960255500355  55.14955357142858 43.622427253371185  C 55.33407738095239 43.860894251242016  55.633928571428584 44.195883605393895  56.04910714285714 44.62739531582683  C 56.46428571428572 45.05890702625976  56.7295386904762 45.34279630943932  56.84486607142858 45.47906316536551  C 56.86793154761906 45.501774308019876  56.91406250000001 45.55287437899219  56.98325892857142 45.63236337828247  C 57.05245535714287 45.71185237757274  57.10435267857143 45.76863023420866  57.13895089285714 45.8026969481902  C 57.17354910714287 45.836763662171755  57.21968005952382 45.893541518807666  57.27734375 45.97303051809794  C 57.33500744047619 46.05251951738821  57.37537202380953 46.114975159687724  57.3984375 46.16039744499645  L 57.484933035714285 46.33073101490419  C 57.484933035714285 46.33073101490419  57.507998511904766 46.39886444286728  57.554129464285715 46.53513129879347  C 57.60026041666667 46.67139815471966  57.606026785714285 46.745209368346345  57.57142857142858 46.756564939673524  C 57.53683035714286 46.7679205110007  57.52529761904763 46.841731724627394  57.53683035714286 46.97799858055358  C 57.46763392857142 47.29595457771469  57.317708333333336 47.54577714691271  57.08705357142858 47.727466288147625  C 56.85639880952382 47.90915542938254  56.60267857142858 47.98864442867282  56.32589285714286 47.965933286018455  C 55.17261904761906 47.8069552874379  54.180803571428584 47.62526614620298  53.35044642857142 47.4208658623137  C 49.7983630952381 46.51242015613911  46.592261904761905 45.05890702625976  43.73214285714286 43.060326472675655  C 41.65625 43.42370475514549  39.6264880952381 43.605393896380406  37.64285714285714 43.605393896380406  C 31.392113095238095 43.605393896380406  25.94866071428571 42.106458481192334  21.3125 39.10858765081618  C 22.65029761904762 39.199432221433646  23.66517857142857 39.24485450674237  24.357142857142858 39.24485450674237  C 28.070684523809526 39.24485450674237  31.634300595238095 38.733853797019165  35.04799107142858 37.71185237757275  C 38.46168154761905 36.68985095812633  41.506324404761905 35.2249822569198  44.18191964285714 33.31724627395316  C 47.06510416666667 31.227821149751595  49.27938988095239 28.82044002838893  50.824776785714285 26.095102909865155  C 52.37016369047618 23.369765791341376  53.14285714285714 20.485450674237043  53.14285714285714 17.44215755855216  C 53.14285714285714 15.693399574166074  52.877604166666664 13.96735273243435  52.347098214285715 12.26401703335699  C 55.32254464285714 13.876508161816888  57.675223214285715 15.897799858055356  59.40513392857142 18.32789212207239  Z " fill-rule="nonzero" fill="#cdcdcd" stroke="none" transform="matrix(1 0 0 1 379 52 )" />
  </g>
</svg>