<?xml version="1.0" encoding="utf-8"?>
<svg version="1.1" xmlns:xlink="http://www.w3.org/1999/xlink" width="47px" height="50px" xmlns="http://www.w3.org/2000/svg">
  <defs>
    <mask fill="white" id="clip39">
      <path d="M 36.12097902097902 25  L 44.86363636363637 30.013020833333336  C 45.87156177156177 30.577256944444443  46.523426573426576 31.418185763888886  46.81923076923077 32.535807291666664  C 47.115034965034965 33.65342881944444  46.97808857808858 34.71137152777778  46.40839160839161 35.709635416666664  L 44.30489510489511 39.29036458333333  C 43.73519813519814 40.28862847222223  42.886130536130544 40.93424479166667  41.7576923076923 41.22721354166667  C 40.62925407925408 41.52018229166667  39.56107226107227 41.38454861111111  38.553146853146856 40.8203125  L 29.81048951048951 35.83984375  L 29.81048951048951 45.83333333333333  C 29.81048951048951 46.96180555555556  29.394172494172494 47.93836805555556  28.561538461538458 48.76302083333333  C 27.728904428904432 49.58767361111111  26.742890442890445 50  25.6034965034965 50  L 21.396503496503495 50  C 20.25710955710956 50  19.27109557109557 49.58767361111111  18.43846153846154 48.76302083333333  C 17.60582750582751 47.93836805555556  17.18951048951049 46.96180555555556  17.18951048951049 45.83333333333333  L 17.18951048951049 35.83984375  L 8.446853146853146 40.8203125  C 7.43892773892774 41.38454861111111  6.370745920745922 41.52018229166667  5.242307692307692 41.22721354166667  C 4.113869463869465 40.93424479166667  3.2648018648018664 40.28862847222223  2.6951048951048953 39.29036458333333  L 0.5916083916083916 35.709635416666664  C 0.021911421911422067 34.71137152777778  -0.11503496503496505 33.65342881944444  0.1807692307692308 32.535807291666664  C 0.47657342657342655 31.418185763888886  1.1284382284382288 30.577256944444443  2.1363636363636362 30.013020833333336  L 10.879020979020979 25  L 2.1363636363636362 19.986979166666668  C 1.1284382284382288 19.422743055555554  0.47657342657342655 18.58181423611111  0.1807692307692308 17.464192708333332  C -0.11503496503496505 16.346571180555554  0.021911421911422067 15.288628472222216  0.5916083916083916 14.290364583333332  L 2.6951048951048953 10.709635416666668  C 3.2648018648018664 9.711371527777773  4.113869463869465 9.065755208333332  5.242307692307692 8.772786458333332  C 6.370745920745922 8.479817708333332  7.43892773892774 8.615451388888884  8.446853146853146 9.1796875  L 17.18951048951049 14.16015625  L 17.18951048951049 4.166666666666669  C 17.18951048951049 3.038194444444442  17.60582750582751 2.061631944444442  18.43846153846154 1.2369791666666685  C 19.27109557109557 0.41232638888888395  20.25710955710956 0  21.396503496503495 0  L 25.6034965034965 0  C 26.742890442890445 0  27.728904428904432 0.41232638888888395  28.561538461538458 1.2369791666666685  C 29.394172494172494 2.061631944444442  29.81048951048951 3.038194444444442  29.81048951048951 4.166666666666669  L 29.81048951048951 14.16015625  L 38.553146853146856 9.1796875  C 39.56107226107227 8.615451388888884  40.62925407925408 8.479817708333332  41.7576923076923 8.772786458333332  C 42.886130536130544 9.065755208333332  43.73519813519814 9.711371527777773  44.30489510489511 10.709635416666668  L 46.40839160839161 14.290364583333332  C 46.97808857808858 15.288628472222216  47.115034965034965 16.346571180555554  46.81923076923077 17.464192708333332  C 46.523426573426576 18.58181423611111  45.87156177156177 19.422743055555554  44.86363636363637 19.986979166666668  L 36.12097902097902 25  Z " fill-rule="evenodd" />
    </mask>
  </defs>
  <g transform="matrix(1 0 0 1 -15 -52 )">
    <path d="M 36.12097902097902 25  L 44.86363636363637 30.013020833333336  C 45.87156177156177 30.577256944444443  46.523426573426576 31.418185763888886  46.81923076923077 32.535807291666664  C 47.115034965034965 33.65342881944444  46.97808857808858 34.71137152777778  46.40839160839161 35.709635416666664  L 44.30489510489511 39.29036458333333  C 43.73519813519814 40.28862847222223  42.886130536130544 40.93424479166667  41.7576923076923 41.22721354166667  C 40.62925407925408 41.52018229166667  39.56107226107227 41.38454861111111  38.553146853146856 40.8203125  L 29.81048951048951 35.83984375  L 29.81048951048951 45.83333333333333  C 29.81048951048951 46.96180555555556  29.394172494172494 47.93836805555556  28.561538461538458 48.76302083333333  C 27.728904428904432 49.58767361111111  26.742890442890445 50  25.6034965034965 50  L 21.396503496503495 50  C 20.25710955710956 50  19.27109557109557 49.58767361111111  18.43846153846154 48.76302083333333  C 17.60582750582751 47.93836805555556  17.18951048951049 46.96180555555556  17.18951048951049 45.83333333333333  L 17.18951048951049 35.83984375  L 8.446853146853146 40.8203125  C 7.43892773892774 41.38454861111111  6.370745920745922 41.52018229166667  5.242307692307692 41.22721354166667  C 4.113869463869465 40.93424479166667  3.2648018648018664 40.28862847222223  2.6951048951048953 39.29036458333333  L 0.5916083916083916 35.709635416666664  C 0.021911421911422067 34.71137152777778  -0.11503496503496505 33.65342881944444  0.1807692307692308 32.535807291666664  C 0.47657342657342655 31.418185763888886  1.1284382284382288 30.577256944444443  2.1363636363636362 30.013020833333336  L 10.879020979020979 25  L 2.1363636363636362 19.986979166666668  C 1.1284382284382288 19.422743055555554  0.47657342657342655 18.58181423611111  0.1807692307692308 17.464192708333332  C -0.11503496503496505 16.346571180555554  0.021911421911422067 15.288628472222216  0.5916083916083916 14.290364583333332  L 2.6951048951048953 10.709635416666668  C 3.2648018648018664 9.711371527777773  4.113869463869465 9.065755208333332  5.242307692307692 8.772786458333332  C 6.370745920745922 8.479817708333332  7.43892773892774 8.615451388888884  8.446853146853146 9.1796875  L 17.18951048951049 14.16015625  L 17.18951048951049 4.166666666666669  C 17.18951048951049 3.038194444444442  17.60582750582751 2.061631944444442  18.43846153846154 1.2369791666666685  C 19.27109557109557 0.41232638888888395  20.25710955710956 0  21.396503496503495 0  L 25.6034965034965 0  C 26.742890442890445 0  27.728904428904432 0.41232638888888395  28.561538461538458 1.2369791666666685  C 29.394172494172494 2.061631944444442  29.81048951048951 3.038194444444442  29.81048951048951 4.166666666666669  L 29.81048951048951 14.16015625  L 38.553146853146856 9.1796875  C 39.56107226107227 8.615451388888884  40.62925407925408 8.479817708333332  41.7576923076923 8.772786458333332  C 42.886130536130544 9.065755208333332  43.73519813519814 9.711371527777773  44.30489510489511 10.709635416666668  L 46.40839160839161 14.290364583333332  C 46.97808857808858 15.288628472222216  47.115034965034965 16.346571180555554  46.81923076923077 17.464192708333332  C 46.523426573426576 18.58181423611111  45.87156177156177 19.422743055555554  44.86363636363637 19.986979166666668  L 36.12097902097902 25  Z " fill-rule="nonzero" fill="#3e1e1e" stroke="none" transform="matrix(1 0 0 1 15 52 )" />
    <path d="M 36.12097902097902 25  L 44.86363636363637 30.013020833333336  C 45.87156177156177 30.577256944444443  46.523426573426576 31.418185763888886  46.81923076923077 32.535807291666664  C 47.115034965034965 33.65342881944444  46.97808857808858 34.71137152777778  46.40839160839161 35.709635416666664  L 44.30489510489511 39.29036458333333  C 43.73519813519814 40.28862847222223  42.886130536130544 40.93424479166667  41.7576923076923 41.22721354166667  C 40.62925407925408 41.52018229166667  39.56107226107227 41.38454861111111  38.553146853146856 40.8203125  L 29.81048951048951 35.83984375  L 29.81048951048951 45.83333333333333  C 29.81048951048951 46.96180555555556  29.394172494172494 47.93836805555556  28.561538461538458 48.76302083333333  C 27.728904428904432 49.58767361111111  26.742890442890445 50  25.6034965034965 50  L 21.396503496503495 50  C 20.25710955710956 50  19.27109557109557 49.58767361111111  18.43846153846154 48.76302083333333  C 17.60582750582751 47.93836805555556  17.18951048951049 46.96180555555556  17.18951048951049 45.83333333333333  L 17.18951048951049 35.83984375  L 8.446853146853146 40.8203125  C 7.43892773892774 41.38454861111111  6.370745920745922 41.52018229166667  5.242307692307692 41.22721354166667  C 4.113869463869465 40.93424479166667  3.2648018648018664 40.28862847222223  2.6951048951048953 39.29036458333333  L 0.5916083916083916 35.709635416666664  C 0.021911421911422067 34.71137152777778  -0.11503496503496505 33.65342881944444  0.1807692307692308 32.535807291666664  C 0.47657342657342655 31.418185763888886  1.1284382284382288 30.577256944444443  2.1363636363636362 30.013020833333336  L 10.879020979020979 25  L 2.1363636363636362 19.986979166666668  C 1.1284382284382288 19.422743055555554  0.47657342657342655 18.58181423611111  0.1807692307692308 17.464192708333332  C -0.11503496503496505 16.346571180555554  0.021911421911422067 15.288628472222216  0.5916083916083916 14.290364583333332  L 2.6951048951048953 10.709635416666668  C 3.2648018648018664 9.711371527777773  4.113869463869465 9.065755208333332  5.242307692307692 8.772786458333332  C 6.370745920745922 8.479817708333332  7.43892773892774 8.615451388888884  8.446853146853146 9.1796875  L 17.18951048951049 14.16015625  L 17.18951048951049 4.166666666666669  C 17.18951048951049 3.038194444444442  17.60582750582751 2.061631944444442  18.43846153846154 1.2369791666666685  C 19.27109557109557 0.41232638888888395  20.25710955710956 0  21.396503496503495 0  L 25.6034965034965 0  C 26.742890442890445 0  27.728904428904432 0.41232638888888395  28.561538461538458 1.2369791666666685  C 29.394172494172494 2.061631944444442  29.81048951048951 3.038194444444442  29.81048951048951 4.166666666666669  L 29.81048951048951 14.16015625  L 38.553146853146856 9.1796875  C 39.56107226107227 8.615451388888884  40.62925407925408 8.479817708333332  41.7576923076923 8.772786458333332  C 42.886130536130544 9.065755208333332  43.73519813519814 9.711371527777773  44.30489510489511 10.709635416666668  L 46.40839160839161 14.290364583333332  C 46.97808857808858 15.288628472222216  47.115034965034965 16.346571180555554  46.81923076923077 17.464192708333332  C 46.523426573426576 18.58181423611111  45.87156177156177 19.422743055555554  44.86363636363637 19.986979166666668  L 36.12097902097902 25  Z " stroke-width="2" stroke="#c24e4e" fill="none" transform="matrix(1 0 0 1 15 52 )" mask="url(#clip39)" />
  </g>
</svg>