<?xml version="1.0" encoding="utf-8"?>
<svg version="1.1" xmlns:xlink="http://www.w3.org/1999/xlink" width="31px" height="31px" xmlns="http://www.w3.org/2000/svg">
  <g transform="matrix(1 0 0 1 -960 -67 )">
    <path d="M 19.01171875 19.01171875  C 20.644931891025642 17.378505608974358  21.46153846153846 15.413060897435896  21.46153846153846 13.115384615384617  C 21.46153846153846 10.81770833333333  20.644931891025642 8.85226362179487  19.01171875 7.219050480769231  C 17.37850560897436 5.585837339743588  15.413060897435898 4.769230769230769  13.115384615384615 4.769230769230769  C 10.817708333333334 4.769230769230769  8.852263621794874 5.585837339743588  7.219050480769231 7.219050480769231  C 5.58583733974359 8.85226362179487  4.769230769230769 10.81770833333333  4.769230769230769 13.115384615384617  C 4.769230769230769 15.413060897435896  5.58583733974359 17.378505608974358  7.219050480769231 19.01171875  C 8.852263621794874 20.644931891025635  10.817708333333334 21.46153846153846  13.115384615384615 21.46153846153846  C 15.413060897435898 21.46153846153846  17.37850560897436 20.644931891025635  19.01171875 19.01171875  Z M 30.310697115384617 26.938701923076923  C 30.770232371794872 27.398237179487182  31 27.957131410256412  31 28.615384615384617  C 31 29.261217948717952  30.764022435897438 29.820112179487182  30.29206730769231 30.29206730769231  C 29.820112179487182 30.764022435897434  29.261217948717952 31  28.615384615384617 31  C 27.94471153846154 31  27.38581730769231 30.764022435897434  26.938701923076923 30.29206730769231  L 20.548677884615383 23.920673076923077  C 18.325520833333336 25.460737179487182  15.847756410256412 26.23076923076923  13.115384615384615 26.23076923076923  C 11.339342948717949 26.23076923076923  9.64092548076923 25.88611778846154  8.020132211538462 25.196814903846157  C 6.3993389423076925 24.50751201923077  5.002103365384615 23.576021634615383  3.828425480769231 22.40234375  C 2.6547475961538463 21.228665865384617  1.723257211538462 19.83143028846154  1.0339543269230769 18.21063701923077  C 0.34465144230769235 16.58984375  0 14.89142628205128  0 13.115384615384617  C 0 11.339342948717945  0.34465144230769235 9.64092548076923  1.0339543269230769 8.020132211538462  C 1.723257211538462 6.399338942307692  2.6547475961538463 5.002103365384617  3.828425480769231 3.8284254807692304  C 5.002103365384615 2.6547475961538476  6.3993389423076925 1.723257211538461  8.020132211538462 1.033954326923078  C 9.64092548076923 0.3446514423076915  11.339342948717949 0  13.115384615384615 0  C 14.891426282051283 0  16.58984375 0.3446514423076915  18.21063701923077 1.033954326923078  C 19.83143028846154 1.723257211538461  21.228665865384617 2.6547475961538476  22.40234375 3.8284254807692304  C 23.576021634615383 5.002103365384617  24.50751201923077 6.399338942307692  25.196814903846153 8.020132211538462  C 25.88611778846154 9.64092548076923  26.23076923076923 11.339342948717945  26.23076923076923 13.115384615384617  C 26.23076923076923 15.847756410256409  25.460737179487182 18.325520833333332  23.920673076923077 20.548677884615383  L 30.310697115384617 26.938701923076923  Z " fill-rule="nonzero" fill="#969696" stroke="none" transform="matrix(1 0 0 1 960 67 )" />
  </g>
</svg>