<?xml version="1.0" encoding="utf-8"?>
<svg version="1.1" xmlns:xlink="http://www.w3.org/1999/xlink" width="28px" height="25px" xmlns="http://www.w3.org/2000/svg">
  <g transform="matrix(1 0 0 1 -566 -690 )">
    <path d="M 3.5405092592592595 0.6103515625  C 3.945601851851852 1.0172526041666656  4.148148148148148 1.5082465277777763  4.148148148148148 2.0833333333333344  C 4.148148148148148 2.8645833333333344  3.8024691358024696 3.4613715277777763  3.1111111111111107 3.8736979166666656  L 3.1111111111111107 24.479166666666664  C 3.1111111111111107 24.620225694444446  3.0597993827160495 24.742296006944446  2.957175925925926 24.845377604166664  C 2.854552469135803 24.948459201388886  2.7330246913580254 25  2.5925925925925926 25  L 1.5555555555555554 25  C 1.4151234567901234 25  1.2935956790123457 24.948459201388886  1.1909722222222223 24.845377604166664  C 1.0883487654320991 24.742296006944446  1.037037037037037 24.620225694444446  1 24.479166666666664  L 1 3.8736979166666656  C 0.3456790123456792 3.4613715277777763  0 2.8645833333333344  0 2.0833333333333344  C 0 1.5082465277777763  0.2025462962962963 1.0172526041666656  0.6076388888888888 0.6103515625  C 1.0127314814814814 0.20345052083333426  1.5015432098765435 0  2.074074074074074 0  C 2.6466049382716053 0  3.135416666666667 0.20345052083333426  3.5405092592592595 0.6103515625  Z M 27.69212962962963 2.392578125  C 27.89737654320988 2.598741319444442  28 2.842881944444442  28 3.125  L 28 15.543619791666668  C 28 15.814887152777773  27.932484567901238 16.023763020833332  27.797453703703702 16.170247395833332  C 27.662422839506178 16.316731770833332  27.449074074074076 16.465928819444443  27.15740740740741 16.617838541666668  C 24.83487654320988 17.87651909722222  22.841820987654323 18.505859375  21.17824074074074 18.505859375  C 20.51929012345679 18.505859375  19.852237654320987 18.38650173611111  19.177083333333336 18.147786458333332  C 18.50192901234568 17.909071180555554  17.915895061728396 17.64865451388889  17.41898148148148 17.366536458333332  C 16.92206790123457 17.084418402777775  16.298225308641975 16.82400173611111  15.547453703703704 16.585286458333332  C 14.796682098765432 16.346571180555554  14.027006172839506 16.227213541666668  13.238425925925926 16.227213541666668  C 11.164351851851851 16.227213541666668  8.658179012345679 17.01931423611111  5.719907407407407 18.603515625  C 5.536265432098766 18.701171875  5.358024691358025 18.75  5.185185185185185 18.75  C 4.904320987654321 18.75  4.661265432098766 18.646918402777775  4.456018518518518 18.440755208333332  C 4.250771604938272 18.23459201388889  4.148148148148148 17.99045138888889  4.148148148148148 17.708333333333332  L 4.148148148148148 5.631510416666666  C 4.148148148148148 5.284288194444442  4.315586419753087 4.985894097222221  4.650462962962963 4.736328125  C 4.877314814814815 4.584418402777776  5.304012345679013 4.351128472222221  5.930555555555555 4.036458333333334  C 8.47993827160494 2.734375  10.75385802469136 2.0833333333333344  12.752314814814815 2.0833333333333344  C 13.908179012345679 2.0833333333333344  14.988425925925926 2.2406684027777763  15.993055555555557 2.5553385416666656  C 16.997685185185187 2.8700086805555554  18.180555555555557 3.3474392361111076  19.541666666666664 3.9876302083333344  C 19.95216049382716 4.193793402777776  20.427469135802472 4.296875  20.96759259259259 4.296875  C 21.550925925925927 4.296875  22.185570987654323 4.182942708333334  22.87152777777778 3.955078125  C 23.557484567901238 3.7272135416666656  24.151620370370374 3.472222222222221  24.653935185185187 3.1901041666666656  C 25.156250000000004 2.9079861111111076  25.63155864197531 2.6529947916666656  26.079861111111114 2.4251302083333344  C 26.528163580246915 2.197265625  26.82253086419753 2.0833333333333344  26.962962962962962 2.0833333333333344  C 27.24382716049383 2.0833333333333344  27.486882716049386 2.1864149305555554  27.69212962962963 2.392578125  Z " fill-rule="nonzero" fill="#cdcdcd" stroke="none" transform="matrix(1 0 0 1 566 690 )" />
  </g>
</svg>