<?xml version="1.0" encoding="utf-8"?>
<svg version="1.1" xmlns:xlink="http://www.w3.org/1999/xlink" width="30px" height="25px" xmlns="http://www.w3.org/2000/svg">
  <g transform="matrix(1 0 0 1 -565 -202 )">
    <path d="M 10.853365384615385 21.129261363636363  C 11.310096153846155 21.579071969696965  11.538461538461538 22.111742424242422  11.538461538461538 22.727272727272727  C 11.538461538461538 23.342803030303035  11.310096153846155 23.875473484848484  10.853365384615385 24.32528409090909  C 10.396634615384617 24.775094696969695  9.855769230769232 25  9.230769230769232 25  C 8.605769230769232 25  8.064903846153847 24.775094696969695  7.608173076923077 24.32528409090909  C 7.1514423076923075 23.875473484848484  6.923076923076923 23.342803030303035  6.923076923076923 22.727272727272727  C 6.923076923076923 22.111742424242422  7.1514423076923075 21.579071969696965  7.608173076923077 21.129261363636363  C 8.064903846153847 20.67945075757576  8.605769230769232 20.454545454545453  9.230769230769232 20.454545454545453  C 9.855769230769232 20.454545454545453  10.396634615384617 20.67945075757576  10.853365384615385 21.129261363636363  Z M 27.007211538461537 21.129261363636363  C 27.463942307692307 21.579071969696965  27.692307692307693 22.111742424242422  27.692307692307693 22.727272727272727  C 27.692307692307693 23.342803030303035  27.463942307692307 23.875473484848484  27.007211538461537 24.32528409090909  C 26.55048076923077 24.775094696969695  26.009615384615387 25  25.384615384615383 25  C 24.759615384615387 25  24.218750000000004 24.775094696969695  23.76201923076923 24.32528409090909  C 23.305288461538463 23.875473484848484  23.076923076923077 23.342803030303035  23.076923076923077 22.727272727272727  C 23.076923076923077 22.111742424242422  23.305288461538463 21.579071969696965  23.76201923076923 21.129261363636363  C 24.218750000000004 20.67945075757576  24.759615384615387 20.454545454545453  25.384615384615383 20.454545454545453  C 26.009615384615387 20.454545454545453  26.55048076923077 20.67945075757576  27.007211538461537 21.129261363636363  Z M 29.657451923076923 2.6100852272727266  C 29.88581730769231 2.8349905303030276  30 3.1013257575757542  30 3.4090909090909087  L 30 12.5  C 30 12.784090909090908  29.900841346153847 13.035629734848486  29.702524038461537 13.25461647727273  C 29.50420673076923 13.473603219696967  29.260817307692307 13.60085227272727  28.97235576923077 13.636363636363635  L 10.150240384615385 15.802556818181818  C 10.306490384615385 16.51278409090909  10.384615384615385 16.927083333333332  10.384615384615385 17.045454545454547  C 10.384615384615385 17.23484848484848  10.240384615384615 17.613636363636363  9.951923076923077 18  L 26.538461538461537 18  C 26.85096153846154 18.181818181818183  27.121394230769234 18.294270833333332  27.349759615384617 18.519176136363637  C 27.578124999999996 18.744081439393938  27.692307692307693 19.010416666666668  27.692307692307693 19.318181818181817  C 27.692307692307693 19.625946969696965  27.578124999999996 19.892282196969695  27.349759615384617 20.1171875  C 27.121394230769234 20.342092803030305  26.85096153846154 20.454545454545453  26.538461538461537 20  L 8.076923076923077 20  C 7.7644230769230775 20.454545454545453  7.493990384615385 20.342092803030305  7.265625 20.1171875  C 7.037259615384615 19.892282196969695  6.923076923076923 19.625946969696965  6.923076923076923 19.318181818181817  C 6.923076923076923 19.187973484848484  6.971153846153846 19.001538825757578  7.0673076923076925 18.75887784090909  C 7.163461538461539 18.516216856060606  7.259615384615385 18.303148674242422  7.355769230769231 18.119673295454547  C 7.4519230769230775 17.936197916666664  7.5811298076923075 17.699455492424242  7.743389423076923 17.40944602272727  C 7.905649038461539 17.119436553030297  7.9987980769230775 16.944839015151516  8.022836538461538 16.88565340909091  L 4.831730769230769 2.2727272727272734  L 1.153846153846154 2.2727272727272734  C 0.841346153846154 2.2727272727272734  0.5709134615384616 2.160274621212119  0.3425480769230769 1.9353693181818177  C 0.1141826923076923 1.7104640151515138  0 1.4441287878787872  0 1.1363636363636354  C 0 0.8285984848484834  0.1141826923076923 0.5622632575757541  0.3425480769230769 0.3373579545454558  C 0.5709134615384616 0.11245265151514916  0.841346153846154 0  1.153846153846154 0  L 5.769230769230769 0  C 5.961538461538462 0  6.1328125 0.03847064393939226  6.283052884615384 0.11541193181818232  C 6.43329326923077 0.1923532196969696  6.55048076923077 0.28409090909090884  6.634615384615384 0.390625  C 6.71875 0.49715909090909116  6.796875 0.6421638257575718  6.868990384615384 0.8256392045454558  C 6.94110576923077 1.0091145833333315  6.989182692307693 1.1629971590909087  7.013221153846154 1.2872869318181823  C 7.037259615384616 1.411576704545456  7.0703125 1.5861742424242404  7.1123798076923075 1.811079545454544  C 7.154447115384616 2.035984848484845  7.181490384615385 2.1898674242424225  7.193509615384616 2.2727272727272734  L 28.846153846153847 2.2727272727272734  C 29.15865384615385 2.2727272727272734  29.42908653846154 2.3851799242424225  29.657451923076923 2.6100852272727266  Z " fill-rule="nonzero" fill="#cdcdcd" stroke="none" transform="matrix(1 0 0 1 565 202 )" />
  </g>
</svg>