<?xml version="1.0" encoding="utf-8"?>
<svg version="1.1" xmlns:xlink="http://www.w3.org/1999/xlink" width="26px" height="20px" xmlns="http://www.w3.org/2000/svg">
  <g transform="matrix(1 0 0 1 -566 -485 )">
    <path d="M 24.005022321428573 18.046875  C 24.096912202380956 17.956912878787882  24.142857142857142 17.85037878787879  24 17.727272727272727  L 24 6.818181818181818  C 23.83333333333334 7.159090909090908  23.49962797619048 7.471590909090908  23.141741071428573 7.755681818181818  C 20.549479166666668 9.706439393939393  18.48921130952381 11.306818181818183  16.9609375 12.556818181818183  C 16.467633928571427 12.964015151515149  16.06622023809524 13.28125  15.756696428571429 13.508522727272727  C 15.44717261904762 13.735795454545453  15.028831845238098 13.965435606060606  14.501674107142856 14.197443181818183  C 13.97451636904762 14.429450757575758  13.478794642857144 14.545454545454547  13.014508928571429 14.545454545454547  L 13 14.545454545454547  L 12.985491071428571 14.545454545454547  C 12.521205357142858 14.545454545454547  12.025483630952381 14.429450757575758  11.498325892857142 14.197443181818183  C 10.971168154761905 13.965435606060606  10.552827380952381 13.735795454545453  10.243303571428571 13.508522727272727  C 9.933779761904763 13.28125  9.532366071428571 12.964015151515149  9.0390625 12.556818181818183  C 7.510788690476192 11.306818181818183  5.450520833333335 9.706439393939393  2.8582589285714284 7.755681818181818  C 2.5003720238095237 7.471590909090908  2.166666666666667 7.159090909090908  2 6.818181818181818  L 2 17.727272727272727  C 1.857142857142857 17.85037878787879  1.903087797619048 17.956912878787882  1.9949776785714286 18.046875  C 2.0868675595238093 18.136837121212118  2.1956845238095237 18.18181818181818  2.3214285714285716 18  L 23.678571428571427 18  C 23.804315476190474 18.18181818181818  23.91313244047619 18.136837121212118  24.005022321428573 18.046875  Z M 23.468191964285715 4.666193181818182  C 23.91796875 3.979640151515149  24.142857142857142 3.3570075757575757  24.142857142857142 2.798295454545454  L 24.142857142857142 2.642045454545454  L 24.142857142857142 2.4502840909090917  C 24.142857142857142 2.4502840909090917  24.14043898809524 2.3887310606060574  24.135602678571427 2.265625  C 24.13076636904762 2.142518939393938  24.11625744047619 2.0833333333333304  24.092075892857142 2.088068181818181  C 24.0678943452381 2.09280303030303  24.041294642857142 2.0501893939393923  24.012276785714285 1.960227272727273  C 23.983258928571427 1.8702651515151492  23.939732142857142 1.8347537878787867  23.881696428571427 1.8536931818181812  C 23.823660714285715 1.8726325757575757  23.755952380952383 1.8607954545454541  23.678571428571427 2  L 2.3214285714285716 2  C 2.1956845238095237 1.8181818181818188  2.0868675595238093 1.8631628787878762  1.9949776785714286 1.953125  C 1.903087797619048 2.0430871212121193  1.857142857142857 2.149621212121211  1.857142857142857 2.272727272727273  C 1.857142857142857 3.8636363636363646  2.568080357142857 5.20833333333333  3.989955357142857 6.306818181818182  C 5.856770833333335 7.746212121212119  7.796130952380953 9.247159090909092  9.808035714285714 10.809659090909092  C 9.866071428571429 10.857007575757574  10.035342261904763 10.996685606060606  10.315848214285714 11.228693181818183  C 10.596354166666668 11.460700757575758  10.818824404761905 11.638257575757574  10.983258928571429 11.761363636363637  C 11.147693452380954 11.884469696969695  11.362909226190478 12.033617424242422  11.62890625 12.208806818181817  C 11.894903273809524 12.383996212121211  12.139136904761905 12.514204545454547  12.361607142857142 12.599431818181817  C 12.584077380952381 12.684659090909092  12.792038690476192 12.727272727272727  12.985491071428571 12.727272727272727  L 13 12.727272727272727  L 13.014508928571429 12.727272727272727  C 13.207961309523812 12.727272727272727  13.41592261904762 12.684659090909092  13.638392857142856 12.599431818181817  C 13.860863095238098 12.514204545454547  14.105096726190476 12.383996212121211  14.37109375 12.208806818181817  C 14.637090773809524 12.033617424242422  14.852306547619047 11.884469696969695  15.016741071428571 11.761363636363637  C 15.181175595238098 11.638257575757574  15.403645833333336 11.460700757575758  15.684151785714285 11.228693181818183  C 15.964657738095239 10.996685606060606  16.133928571428573 10.857007575757574  16.191964285714285 10.809659090909092  C 18.203869047619047 9.247159090909092  20.143229166666668 7.746212121212119  22.010044642857142 6.306818181818182  C 22.532366071428573 5.899621212121211  23.018415178571427 5.352746212121211  23.468191964285715 4.666193181818182  Z M 25.318080357142858 0.6676136363636354  C 25.772693452380956 1.1126893939393923  26 1.647727272727273  26 2.272727272727273  L 26 17.727272727272727  C 26 18.352272727272727  25.772693452380956 18.88731060606061  25.318080357142858 19.332386363636363  C 24.863467261904766 19.777462121212118  24.316964285714292 20  23.678571428571427 20  L 2.3214285714285716 20  C 1.6830357142857144 20  1.1365327380952381 19.777462121212118  0.6819196428571429 19.332386363636363  C 0.22730654761904762 18.88731060606061  0 18.352272727272727  0 17.727272727272727  L 0 2.272727272727273  C 0 1.647727272727273  0.22730654761904762 1.1126893939393923  0.6819196428571429 0.6676136363636354  C 1.1365327380952381 0.22253787878787623  1.6830357142857144 0  2.3214285714285716 0  L 23.678571428571427 0  C 24.316964285714292 0  24.863467261904766 0.22253787878787623  25.318080357142858 0.6676136363636354  Z " fill-rule="nonzero" fill="#cdcdcd" stroke="none" transform="matrix(1 0 0 1 566 485 )" />
  </g>
</svg>