<?xml version="1.0" encoding="utf-8"?>
<svg version="1.1" xmlns:xlink="http://www.w3.org/1999/xlink" width="100px" height="100px" xmlns="http://www.w3.org/2000/svg">
  <g>
    <path d="M 1.5 5.000000000000001  A 3.5 3.5 0 0 1 4.999999999999999 1.5 L 95 1.5  A 3.5 3.5 0 0 1 98.5 5 L 98.5 95  A 3.5 3.5 0 0 1 95 98.5 L 5 98.5  A 3.5 3.5 0 0 1 1.5 95 L 1.5 5  Z " fill-rule="nonzero" fill="#ffffff" stroke="none" fill-opacity="0" />
    <path d="M 1 5.000000000000001  A 4 4 0 0 1 4.999999999999999 1 L 95 1  A 4 4 0 0 1 99 5 L 99 95  A 4 4 0 0 1 95 99 L 5 99  A 4 4 0 0 1 1 95 L 1 5  Z " stroke-width="2" stroke="#f0f0f0" fill="none" />
  </g>
</svg>